<svg xmlns="http://www.w3.org/2000/svg" viewBox="0 0 64 64" fill="none" aria-hidden="true">
  <ellipse cx="18" cy="30" rx="11" ry="7" fill="#fff" fill-opacity="0.75" transform="rotate(-25 18 30)"/>
  <ellipse cx="46" cy="30" rx="11" ry="7" fill="#fff" fill-opacity="0.75" transform="rotate(25 46 30)"/>
  <ellipse cx="32" cy="38" rx="15" ry="17" fill="#f5d060"/>
  <rect x="19" y="31" width="26" height="4.5" rx="2" fill="#3a3224" fill-opacity="0.8"/>
  <rect x="19" y="39" width="26" height="4.5" rx="2" fill="#3a3224" fill-opacity="0.8"/>
  <rect x="19" y="47" width="26" height="4.5" rx="2" fill="#3a3224" fill-opacity="0.8"/>
  <circle cx="32" cy="22" r="11" fill="#3a3224"/>
  <circle cx="27" cy="21" r="2.5" fill="#fff"/>
  <circle cx="37" cy="21" r="2.5" fill="#fff"/>
  <circle cx="27.5" cy="21.5" r="1.2" fill="#3a3224"/>
  <circle cx="37.5" cy="21.5" r="1.2" fill="#3a3224"/>
  <path d="M25 25.5Q32 29 39 25.5" stroke="#fff" stroke-width="1.8" stroke-linecap="round"/>
  <path d="M28 11 L24 6 M36 11 L40 6" stroke="#3a3224" stroke-width="2" stroke-linecap="round"/>
  <circle cx="24" cy="6" r="2.2" fill="#3a3224"/>
  <circle cx="40" cy="6" r="2.2" fill="#3a3224"/>
</svg>
